{
	"asset":{
		"generator":"Khronos glTF Blender I/O v4.4.56",
		"version":"2.0"
	},
	"scene":0,
	"scenes":[
		{
			"name":"Scene",
			"nodes":[
				0
			]
		}
	],
	"nodes":[
		{
			"mesh":0,
			"name":"\u6e29\u99a8\u7684\u623f\u5b50",
			"translation":[
				-74.04363250732422,
				17.523540496826172,
				154.18756103515625
			]
		}
	],
	"meshes":[
		{
			"name":"\u6e29\u99a8\u7684\u623f\u5b50",
			"primitives":[
				{
					"attributes":{
						"POSITION":0,
						"NORMAL":1
					},
					"indices":2
				}
			]
		}
	],
	"accessors":[
		{
			"bufferView":0,
			"componentType":5126,
			"count":249919,
			"max":[
				188.01499938964844,
				112.70000457763672,
				-72.04000091552734
			],
			"min":[
				67.98500061035156,
				0,
				-183.9600067138672
			],
			"type":"VEC3"
		},
		{
			"bufferView":1,
			"componentType":5126,
			"count":249919,
			"type":"VEC3"
		},
		{
			"bufferView":2,
			"componentType":5125,
			"count":1499976,
			"type":"SCALAR"
		}
	],
	"bufferViews":[
		{
			"buffer":0,
			"byteLength":2999028,
			"byteOffset":0,
			"target":34962
		},
		{
			"buffer":0,
			"byteLength":2999028,
			"byteOffset":2999028,
			"target":34962
		},
		{
			"buffer":0,
			"byteLength":5999904,
			"byteOffset":5998056,
			"target":34963
		}
	],
	"buffers":[
		{
			"byteLength":11997960,
			"uri":"%E6%B8%A9%E9%A6%A8%E7%9A%84%E6%88%BF%E5%AD%90.bin"
		}
	]
}
